<svg xmlns="http://www.w3.org/2000/svg" width="1200" height="750"><rect width="1200" height="750" fill="#0b0e14"/><rect x="70" y="70" width="1060" height="610" rx="22" fill="#11161e" stroke="#2b323e"/><rect x="70" y="70" width="500" height="610" rx="22" fill="#0e1219"/><text x="120" y="150" fill="#f5f7fb" font-family="Arial" font-size="30" font-weight="700">LINGJING</text><text x="120" y="185" fill="#8993a6" font-family="Arial" font-size="14">GAME STUDIO CLOUD</text><text x="120" y="285" fill="#f4f6fb" font-family="Arial" font-size="27" font-weight="700">A workspace for</text><text x="120" y="322" fill="#f4f6fb" font-family="Arial" font-size="27" font-weight="700">game investigation.</text><text x="120" y="380" fill="#7f899d" font-family="Arial" font-size="14">Tenant-isolated tasks, persistent evidence,</text><text x="120" y="405" fill="#7f899d" font-family="Arial" font-size="14">realtime progress and production auth.</text><circle cx="120" cy="545" r="7" fill="#6d5dfc"/><text x="142" y="550" fill="#a9b1c1" font-family="Arial" font-size="13">Workspace isolation</text><circle cx="120" cy="585" r="7" fill="#6d5dfc"/><text x="142" y="590" fill="#a9b1c1" font-family="Arial" font-size="13">HttpOnly session + JWT</text><text x="650" y="155" fill="#f5f7fb" font-family="Arial" font-size="25" font-weight="700">Create your workspace</text><text x="650" y="190" fill="#8993a6" font-family="Arial" font-size="14">Start with a secure team boundary.</text><text x="650" y="250" fill="#949daf" font-family="Arial" font-size="12">EMAIL</text><rect x="650" y="270" width="390" height="50" rx="10" fill="#0d1118" stroke="#303744"/><text x="675" y="301" fill="#6f798c" font-family="Arial" font-size="13">you@studio.com</text><text x="650" y="365" fill="#949daf" font-family="Arial" font-size="12">WORKSPACE NAME</text><rect x="650" y="385" width="390" height="50" rx="10" fill="#0d1118" stroke="#303744"/><text x="675" y="416" fill="#6f798c" font-family="Arial" font-size="13">Gameplay QA</text><rect x="650" y="485" width="390" height="52" rx="11" fill="#6d5dfc"/><text x="784" y="518" fill="white" font-family="Arial" font-size="14" font-weight="700">Create workspace</text><text x="650" y="590" fill="#727c90" font-family="Arial" font-size="12">Passwords use Argon2 · Sessions are HttpOnly</text></svg>